#!OML:ASF F:\VICON\USERDATA\INSTALL\Justin_Nancy\Justin_Nancy.ASF
:FULLY-SPECIFIED
:DEGREES
18
root 1.12929 17.0043 -25.9198 7.90391 -8.37413 7.17219
lowerback 11.8834 -0.505281 -3.09829
upperback -0.0144977 -1.05318 0.702929
thorax -6.62349 -0.401847 2.67458
lowerneck -23.0817 -2.28837 -10.9342
upperneck 9.77443 -0.689313 6.08851
head 6.75486 -0.20048 3.67765
rclavicle 1.45113e-014 -1.43125e-014
rhumerus -69.1629 1.11345 -86.8775
rradius 106.71
rwrist -12.5105
rhand -19.9992 36.0305
rfingers 7.12502
rthumb 6.34057 6.14541
lclavicle 1.45113e-014 -1.43125e-014
lhumerus -41.3699 -4.48524 97.9937
lradius 114.412
lwrist 23.916
lhand -15.0562 6.03465
lfingers 7.12502
lthumb 11.1105 35.7205
rfemur -47.466 -7.94017 25.7131
rtibia 36.3053
rfoot 5.64243 5.40109
rtoes 1.99799
lfemur 13.5013 -3.34549 -34.6775
ltibia 47.1601
lfoot 44.602 -18.2302
ltoes 12.5335
19
root 1.11996 16.9572 -25.303 7.35536 -8.33446 6.65097
lowerback 12.3214 -0.350684 -2.58499
upperback 0.190505 -0.773504 0.88933
thorax -6.67461 -0.280282 2.53836
lowerneck -22.841 -2.483 -11.0348
upperneck 9.72886 -0.916569 5.89647
head 6.72157 -0.334025 3.5995
rclavicle -8.74653e-015 -1.90833e-014
rhumerus -67.5191 1.17924 -86.9475
rradius 105.931
rwrist -12.7647
rhand -19.8554 36.1273
rfingers 7.12502
rthumb 6.47943 6.24645
lclavicle -8.74653e-015 -1.90833e-014
lhumerus -42.0067 -3.82488 97.8412
lradius 110.792
lwrist 23.7179
lhand -14.7084 6.36173
lfingers 7.12502
lthumb 11.446 36.0293
rfemur -46.3021 -8.01312 26.1874
rtibia 38.871
rfoot 4.03038 7.94599
rtoes 15.2013
lfemur 11.76 -2.71912 -33.481
ltibia 52.0136
lfoot 44.1432 -18.4592
ltoes 17.8765
20
root 1.11004 16.8858 -24.6936 6.74674 -8.44221 6.39099
lowerback 12.8519 -0.192351 -2.34269
upperback 0.270301 -0.534385 0.972664
thorax -6.90416 -0.167099 2.45381
lowerneck -22.1422 -2.50713 -11.1074
upperneck 9.54401 -0.990213 5.79459
head 6.55764 -0.386718 3.56301
rclavicle -7.15625e-015 7.95139e-015
rhumerus -66.1151 1.49446 -87.2109
rradius 105.257
rwrist -13.1284
rhand -19.8546 35.8172
rfingers 7.12502
rthumb 6.48019 5.93634
lclavicle -7.15625e-015 7.95139e-015
lhumerus -42.7417 -3.21741 97.6543
lradius 107.04
lwrist 22.8622
lhand -15.7706 7.33322
lfingers 7.12502
lthumb 10.4214 37.0549
rfemur -45.0004 -7.7306 26.1313
rtibia 41.8688
rfoot 0.230759 4.12277
rtoes 12.7466
lfemur 9.92106 -1.89793 -32.5003
ltibia 56.8799
lfoot 40.8213 -17.8393
ltoes 13.467
21
root 1.09774 16.7974 -24.0879 6.36026 -8.96592 5.95759
lowerback 13.0608 0.0899651 -1.9797
upperback 0.367309 -0.10632 1.02298
thorax -6.94364 0.0297902 2.22328
lowerneck -21.6068 -2.5483 -11.0751
upperneck 9.30915 -1.10349 5.72605
head 6.40613 -0.44813 3.5173
rclavicle 1.98785e-015 -1.98785e-014
rhumerus -64.4842 1.80158 -87.6292
rradius 104.449
rwrist -13.2661
rhand -19.5174 35.2917
rfingers 7.12502
rthumb 6.80567 5.42103
lclavicle 1.98785e-015 -1.98785e-014
lhumerus -43.2227 -2.74383 97.3157
lradius 103.304
lwrist 22.5161
lhand -18.6348 6.48686
lfingers 7.12502
lthumb 7.65768 36.3282
rfemur -43.7796 -6.70791 26.102
rtibia 45.0824
rfoot -3.31838 -1.13347
rtoes 7.00229
lfemur 7.62382 -0.684493 -31.3006
ltibia 61.9556
lfoot 37.3801 -16.854
ltoes 10.5255
22
root 1.07781 16.7303 -23.5149 5.85069 -8.65796 5.72698
lowerback 13.779 0.131838 -1.75123
upperback 0.515129 -0.0208715 1.1093
thorax -7.19341 0.0669348 2.1737
lowerneck -21.4877 -2.58746 -11.1466
upperneck 9.17275 -1.14777 5.72976
head 6.34731 -0.470601 3.52301
rclavicle 3.53837e-014 3.81667e-014
rhumerus -62.3226 2.16221 -88.0667
rradius 103.398
rwrist -13.0282
rhand -19.9413 35.2677
rfingers 7.12502
rthumb 6.39644 5.3843
lclavicle 3.53837e-014 3.81667e-014
lhumerus -43.4556 -2.17239 97.0324
lradius 99.6181
lwrist 22.7428
lhand -20.0631 4.49784
lfingers 7.12502
lthumb 6.27886 34.3848
rfemur -42.4991 -6.01852 25.7305
rtibia 48.173
rfoot -6.68845 -0.514595
rtoes 10.5437
lfemur 5.16437 -0.292493 -30.1647
ltibia 67.0253
lfoot 34.3334 -15.2173
ltoes 9.29118
23
root 1.03415 16.6685 -23.0029 6.45382 -6.92542 5.63917
lowerback 14.2038 -0.246809 -1.68062
upperback 0.218132 -0.503286 1.27353
thorax -7.72556 -0.156236 2.41369
lowerneck -21.7524 -2.65866 -11.1673
upperneck 9.34425 -1.20125 5.68092
head 6.44914 -0.501714 3.50624
rclavicle -1.25234e-014 -1.51076e-014
rhumerus -59.8441 2.53621 -88.5585
rradius 102.268
rwrist -12.6235
rhand -20.6471 35.1165
rfingers 7.12502
rthumb 5.71509 5.21359
lclavicle -1.25234e-014 -1.51076e-014
lhumerus -43.9163 -1.86746 96.7282
lradius 96.4427
lwrist 23.2383
lhand -17.2253 5.723
lfingers 7.12502
lthumb 9.01791 35.5102
rfemur -42.5289 -6.08267 25.5229
rtibia 50.7868
rfoot -9.26633 -1.20966
rtoes 13.0357
lfemur 0.847036 -1.31966 -28.7409
ltibia 72.3417
lfoot 31.8957 -13.5551
ltoes 10.3899
24
root 1.00308 16.5924 -22.4489 6.6514 -6.1321 4.95187
lowerback 14.5 -0.286792 -1.02651
upperback 0.203657 -0.4322 1.49335
thorax -7.91473 -0.13946 2.26744
lowerneck -22.0544 -2.87359 -10.8836
upperneck 9.41291 -1.47686 5.28
head 6.53694 -0.657572 3.2956
rclavicle 1.2921e-014 -7.95139e-015
rhumerus -57.2937 2.9684 -88.9151
rradius 101.41
rwrist -12.4343
rhand -20.6014 34.6057
rfingers 7.12502
rthumb 5.75918 4.704
lclavicle 1.2921e-014 -7.95139e-015
lhumerus -44.3818 -1.89184 96.57
lradius 93.6449
lwrist 23.691
lhand -15.9592 7.65339
lfingers 7.12502
lthumb 10.2395 37.3842
rfemur -41.4233 -5.48982 25.9452
rtibia 52.7309
rfoot -11.9864 -5.93334
rtoes 6.24899
lfemur -2.81716 -1.30657 -26.8823
ltibia 77.2086
lfoot 28.7264 -12.3576
ltoes 10.1876
25
root 0.976514 16.5349 -21.8622 6.64889 -6.18198 3.04976
lowerback 14.7278 -0.180848 0.633987
upperback 0.271997 0.0340801 2.05318
thorax -7.99096 0.0335684 1.82746
lowerneck -22.0699 -2.95179 -10.8506
upperneck 9.40648 -1.56212 5.10031
head 6.54235 -0.71335 3.22001
rclavicle -1.19271e-014 1.59028e-015
rhumerus -54.8883 3.93328 -89.234
rradius 100.811
rwrist -12.36
rhand -20.1695 34.5904
rfingers 7.12502
rthumb 6.17621 4.70045
lclavicle -1.19271e-014 1.59028e-015
lhumerus -45.0183 -1.58517 96.4516
lradius 91.0704
lwrist 23.5859
lhand -16.9951 9.02765
lfingers 7.12502
lthumb 9.24003 38.8052
rfemur -39.228 -4.15823 27.6456
rtibia 53.9127
rfoot -14.522 -8.49348
rtoes 4.96302
lfemur -5.9884 -0.287614 -23.7256
ltibia 81.5992
lfoot 25.1044 -12.2905
ltoes 6.70872
26
root 0.963553 16.4893 -21.2641 6.59417 -6.59953 1.04665
lowerback 14.8431 -0.0607425 2.32689
upperback 0.370371 0.533986 2.71142
thorax -7.9568 0.223026 1.4658
lowerneck -21.7427 -2.81107 -11.0643
upperneck 9.26693 -1.34612 5.08493
head 6.42924 -0.619461 3.27298
rclavicle 3.97569e-015 6.36111e-015
rhumerus -52.539 5.52594 -89.5609
rradius 100.528
rwrist -12.0935
rhand -20.0352 34.7845
rfingers 7.12502
rthumb 6.30588 4.89836
lclavicle 3.97569e-015 6.36111e-015
lhumerus -46.0096 -0.760326 96.3219
lradius 89.1468
lwrist 22.9611
lhand -17.0109 10.7481
lfingers 7.12502
lthumb 9.22484 40.5263
rfemur -36.5882 -2.72262 29.4248
rtibia 54.5054
rfoot -16.8146 -9.90105
rtoes 3.03876
lfemur -8.92027 1.08871 -20.571
ltibia 85.3832
lfoot 21.0897 -12.3622
ltoes 1.6693
27
root 0.956779 16.4424 -20.6723 6.44735 -6.91881 -0.146371
lowerback 14.9398 0.0565467 3.38728
upperback 0.562783 0.889242 3.0141
thorax -7.79732 0.362067 1.11261
lowerneck -21.6641 -2.70618 -10.935
upperneck 9.15058 -1.24298 5.03271
head 6.36915 -0.567694 3.24606
rclavicle -2.54444e-014 -2.38542e-014
rhumerus -49.8615 7.0686 -90.0632
rradius 100.537
rwrist -11.9361
rhand -19.9254 34.6194
rfingers 7.12502
rthumb 6.41186 4.73641
lclavicle -2.54444e-014 -2.38542e-014
lhumerus -47.0163 -0.165694 95.9864
lradius 87.8464
lwrist 21.9932
lhand -17.3397 10.21
lfingers 7.12502
lthumb 8.90753 40.0019
rfemur -33.7869 -1.69556 30.3056
rtibia 54.5654
rfoot -18.3701 -11.8605
rtoes -1.76244
lfemur -11.8219 2.27263 -18.5053
ltibia 88.6306
lfoot 17.0331 -12.0223
ltoes -2.37017
28
root 0.939636 16.407 -20.1018 6.29937 -6.78283 -0.629091
lowerback 15.1892 0.0594812 3.72772
upperback 0.69675 0.969867 3.15078
thorax -7.78977 0.391652 1.04859
lowerneck -21.9917 -2.68515 -10.6478
upperneck 9.21494 -1.23281 4.84764
head 6.43726 -0.566313 3.141
rclavicle 3.57812e-015 2.54444e-014
rhumerus -47.0567 8.69101 -90.509
rradius 100.985
rwrist -12.1298
rhand -19.2048 34.3717
rfingers 7.12502
rthumb 7.10748 4.511
lclavicle 3.57812e-015 2.54444e-014
lhumerus -48.0644 0.153199 95.6327
lradius 86.9123
lwrist 20.6805
lhand -18.5806 8.15983
lfingers 7.12502
lthumb 7.70999 37.9993
rfemur -31.034 -1.07915 30.5014
rtibia 54.3664
rfoot -19.9158 -13.5974
rtoes -3.92525
lfemur -15.0878 2.8264 -17.3002
ltibia 91.4688
lfoot 14.0889 -11.1945
ltoes -3.52358
29
root 0.912512 16.4197 -19.5452 6.10201 -5.91723 -0.591645
lowerback 15.5494 -0.113264 3.73121
upperback 0.846865 0.760705 3.19607
thorax -7.83132 0.291841 1.14022
lowerneck -22.3416 -2.79158 -10.6143
upperneck 9.12988 -1.32959 4.75221
head 6.47057 -0.614921 3.09189
rclavicle -1.03368e-014 -6.67916e-014
rhumerus -44.2672 10.1245 -90.7141
rradius 102.091
rwrist -12.6266
rhand -18.5819 34.15
rfingers 7.12502
rthumb 7.70869 4.31049
lclavicle -1.03368e-014 -6.67916e-014
lhumerus -48.99 0.14507 95.4523
lradius 86.5772
lwrist 19.8542
lhand -19.2123 7.53442
lfingers 7.12502
lthumb 7.10018 37.3953
rfemur -28.1769 -1.30067 30.3008
rtibia 53.8606
rfoot -21.1786 -14.8472
rtoes -6.16293
lfemur -18.5595 2.5594 -16.705
ltibia 93.6596
lfoot 11.9797 -9.85577
ltoes -5.18215
30
root 0.889218 16.4158 -18.996 6.14313 -4.97367 -0.713727
lowerback 15.5349 -0.265575 3.84084
upperback 0.94644 0.584786 3.33766
thorax -7.71765 0.207716 1.26745
lowerneck -22.2406 -2.84241 -10.6524
upperneck 8.77421 -1.38238 4.67031
head 6.3422 -0.642581 3.06154
rclavicle 1.35174e-014 -2.38542e-014
rhumerus -41.683 11.4742 -90.8466
rradius 103.663
rwrist -13.1405
rhand -18.5329 33.788
rfingers 7.12502
rthumb 7.75596 3.95025
lclavicle 1.35174e-014 -2.38542e-014
lhumerus -50.0921 -0.0104251 95.4773
lradius 87.1089
lwrist 19.8192
lhand -18.9688 7.49749
lfingers 7.12502
lthumb 7.33522 37.3503
rfemur -25.6804 -1.65438 30.3628
rtibia 53.2484
rfoot -21.5891 -16.317
rtoes -10.9061
lfemur -22.5091 2.37954 -15.9962
ltibia 95.5804
lfoot 9.74933 -8.06243
ltoes -8.73682
